<svg width="57" height="64" viewBox="0 0 57 64" fill="none" xmlns="http://www.w3.org/2000/svg">
<path d="M45.542 4.709C45.261 3.098 45.118 1.521 45.094 0H41.156C41.231 0.513 41.269 1.034 41.269 1.564C41.269 8.108 35.374 13.412 28.1 13.412C20.831 13.412 14.935 8.108 14.935 1.564C14.935 1.034 14.972 0.512 15.047 0H11.109C11.088 1.521 10.938 3.098 10.661 4.709C8.977 14.408 6.544 22.287 0 24.203C0 24.203 2.823 28.743 2.823 36.527C2.826 49.965 0.00300002 64 0.00300002 64H56.203C56.203 64 52.672 49.97 52.672 36.116C52.672 28.742 56.203 24.203 56.203 24.203C49.66 22.288 47.222 14.408 45.54 4.709" fill="#6ADBC6"/>
<path d="M28.099 13.413C35.373 13.413 41.268 8.109 41.268 1.565C41.268 1.035 41.23 0.512999 41.155 0.000999451C37.528 1.647 34.182 3.705 28.095 3.705C21.934 3.705 18.67 1.685 15.045 0.000999451C14.97 0.513999 14.933 1.035 14.933 1.565C14.933 8.108 20.828 13.413 28.097 13.413" fill="#428BC1"/>
<path d="M1.48001 54.788C0.644007 60.779 0.00100708 64 0.00100708 64H8.31501L51.259 20.9C49.107 18.339 47.709 14.625 46.663 10.263L1.48301 54.792" fill="#FFCE31"/>
</svg>
