<svg width="100" height="100" viewBox="0 0 100 100" fill="none" xmlns="http://www.w3.org/2000/svg">
<path d="M65.3558 21.1538L53.1817 39.4096H59.2711L71.4413 21.1538H65.3558Z" fill="#428BC1"/>
<path d="M59.2712 21.1538L47.101 39.4096H53.1817L65.3558 21.1538H59.2712Z" fill="#E8E8E8"/>
<path d="M53.1817 21.1538L41.0154 39.4096H47.101L59.2712 21.1538H53.1817Z" fill="#ED4C5C"/>
<path d="M38.9865 35.3529C38.4288 35.3529 37.9721 35.8086 37.9721 36.3673V45.4952C37.9721 46.0538 38.4288 46.5096 38.9865 46.5096H61.2942C61.85 46.5096 62.3087 46.0538 62.3087 45.4952V36.3673C62.3087 35.8086 61.85 35.3529 61.2942 35.3529H38.9865ZM60.2846 42.4519C60.2846 43.0096 59.826 43.4663 59.2702 43.4663H41.0144C40.4567 43.4663 40 43.0096 40 42.4519V38.3952C40 37.8365 40.4567 37.3808 41.0144 37.3808H59.2702C59.826 37.3808 60.2846 37.8365 60.2846 38.3952V42.4519Z" fill="#FFC200"/>
<path d="M41.0154 39.4096H47.101L34.9308 21.1538H28.8462L41.0154 39.4096Z" fill="#ED4C5C"/>
<path d="M47.101 39.4096H53.1817L41.0154 21.1538H34.9308L47.101 39.4096Z" fill="#E8E8E8"/>
<path opacity="0.5" d="M51.1529 24.1971L48.1154 28.7606L55.2106 39.4144H59.2712L60.2856 37.8933L51.1529 24.1971Z" fill="#3E4347"/>
<path d="M53.1817 39.4096H59.2712L47.101 21.1538H41.0154L53.1817 39.4096Z" fill="#428BC1"/>
<path d="M50.1433 78.8423C60.6133 78.8423 69.101 70.3546 69.101 59.8846C69.101 49.4146 60.6133 40.9269 50.1433 40.9269C39.6732 40.9269 31.1856 49.4146 31.1856 59.8846C31.1856 70.3546 39.6732 78.8423 50.1433 78.8423Z" fill="#FFC200"/>
<path d="M50.4029 42.6538C40.7394 42.6538 32.9029 50.5 32.9029 60.1817C32.9029 63.0663 33.6125 65.7865 34.8452 68.1875C34.2211 66.2788 33.8721 64.2452 33.8721 62.1317C33.8721 51.8654 41.8038 43.475 51.8577 42.7279C51.375 42.6885 50.8961 42.6538 50.399 42.6538" fill="#E68A00"/>
<path d="M63.5856 49.0385C68.5231 57.6615 65.9423 68.8163 57.4279 74.5394C55.6712 75.7173 53.7933 76.5663 51.8664 77.1231C54.5404 76.7913 57.1865 75.8567 59.5779 74.2481C67.6106 68.851 69.7894 58.0788 64.4462 50.1904C64.175 49.7894 63.8817 49.4135 63.5817 49.0433" fill="#FFE394"/>
<path d="M50.1433 52.2212V46.0846L47.0231 55.6894L48.4606 57.4144L50.1433 52.2212Z" fill="#F2B200"/>
<path d="M51.8298 57.4144L53.2587 55.6894L50.1433 46.0846V52.2212L51.8298 57.4144Z" fill="#E68A00"/>
<path d="M52.8721 60.625L55.1913 61.625L63.3635 55.6894L57.2875 57.4144L52.8721 60.625Z" fill="#C47500"/>
<path d="M57.2875 57.4144L63.3635 55.6894H53.2586L51.8298 57.4144H57.2875Z" fill="#FFE394"/>
<path d="M48.4606 57.4144L47.0231 55.6894H36.9231L43 57.4144H48.4606Z" fill="#FFD252"/>
<path d="M43 57.4144L36.9231 55.6894L45.0942 61.625L47.4125 60.625L43 57.4144Z" fill="#FFDB75"/>
<path d="M52.8721 60.625L54.5577 65.8077L58.3144 71.2308L55.1913 61.625L52.8721 60.625Z" fill="#E68A00"/>
<path d="M50.1433 62.6057V65.2942L58.3144 71.2307L54.5577 65.8077L50.1433 62.6057Z" fill="#F2B200"/>
<path d="M47.4125 60.625L45.0942 61.625L41.9711 71.2308L45.7269 65.8077L47.4125 60.625Z" fill="#F2B200"/>
<path d="M45.7269 65.8077L41.9711 71.2307L50.1433 65.2942V62.6057L45.7269 65.8077Z" fill="#E68A00"/>
<path d="M51.8298 57.4144L50.1433 52.2212L48.4606 57.4144H43L47.4125 60.625L45.7269 65.8077L50.1433 62.6058L54.5577 65.8077L52.8721 60.625L57.2875 57.4144H51.8298Z" fill="#FFCE31"/>
<rect x="1.5" y="1.5" width="97" height="97" rx="2.5" stroke="#ED4C5C" stroke-width="3"/>
</svg>
