<svg width="251" height="251" viewBox="0 0 251 251" fill="none" xmlns="http://www.w3.org/2000/svg">
<rect width="251" height="251" fill="white"/>
<path d="M82.8277 131.304H67.2625L63.7668 141H58.7145L72.9017 103.848H77.1885L91.4013 141H86.3745L82.8277 131.304ZM68.7425 127.272H81.3732L75.0451 109.895L68.7425 127.272ZM111.738 133.677C111.738 132.401 111.253 131.414 110.284 130.717C109.331 130.002 107.655 129.39 105.257 128.88C102.875 128.369 100.979 127.757 99.5666 127.042C98.1717 126.328 97.134 125.477 96.4536 124.491C95.7901 123.504 95.4584 122.33 95.4584 120.969C95.4584 118.707 96.411 116.793 98.3163 115.228C100.239 113.663 102.688 112.881 105.665 112.881C108.795 112.881 111.33 113.689 113.269 115.305C115.225 116.921 116.203 118.988 116.203 121.505H111.457C111.457 120.212 110.904 119.098 109.799 118.163C108.71 117.227 107.332 116.759 105.665 116.759C103.947 116.759 102.603 117.133 101.633 117.882C100.664 118.63 100.179 119.609 100.179 120.816C100.179 121.956 100.63 122.815 101.531 123.394C102.433 123.972 104.058 124.525 106.405 125.052C108.77 125.579 110.683 126.209 112.146 126.94C113.609 127.672 114.689 128.556 115.387 129.594C116.101 130.615 116.459 131.865 116.459 133.345C116.459 135.812 115.472 137.793 113.499 139.29C111.525 140.77 108.965 141.51 105.818 141.51C103.607 141.51 101.65 141.119 99.9493 140.337C98.2482 139.554 96.9129 138.465 95.9432 137.07C94.9906 135.659 94.5143 134.136 94.5143 132.503H99.2349C99.3199 134.085 99.9493 135.344 101.123 136.279C102.314 137.198 103.879 137.657 105.818 137.657C107.604 137.657 109.033 137.3 110.105 136.586C111.194 135.854 111.738 134.885 111.738 133.677ZM138.684 133.677C138.684 132.401 138.199 131.414 137.229 130.717C136.277 130.002 134.601 129.39 132.202 128.88C129.821 128.369 127.924 127.757 126.512 127.042C125.117 126.328 124.08 125.477 123.399 124.491C122.736 123.504 122.404 122.33 122.404 120.969C122.404 118.707 123.357 116.793 125.262 115.228C127.184 113.663 129.634 112.881 132.611 112.881C135.741 112.881 138.275 113.689 140.215 115.305C142.171 116.921 143.149 118.988 143.149 121.505H138.403C138.403 120.212 137.85 119.098 136.744 118.163C135.656 117.227 134.278 116.759 132.611 116.759C130.893 116.759 129.549 117.133 128.579 117.882C127.609 118.63 127.125 119.609 127.125 120.816C127.125 121.956 127.575 122.815 128.477 123.394C129.379 123.972 131.003 124.525 133.351 125.052C135.715 125.579 137.629 126.209 139.092 126.94C140.555 127.672 141.635 128.556 142.332 129.594C143.047 130.615 143.404 131.865 143.404 133.345C143.404 135.812 142.418 137.793 140.444 139.29C138.471 140.77 135.911 141.51 132.764 141.51C130.552 141.51 128.596 141.119 126.895 140.337C125.194 139.554 123.858 138.465 122.889 137.07C121.936 135.659 121.46 134.136 121.46 132.503H126.18C126.265 134.085 126.895 135.344 128.069 136.279C129.259 137.198 130.824 137.657 132.764 137.657C134.55 137.657 135.979 137.3 137.051 136.586C138.139 135.854 138.684 134.885 138.684 133.677ZM161.011 141.51C157.268 141.51 154.223 140.286 151.876 137.836C149.528 135.369 148.354 132.078 148.354 127.961V127.093C148.354 124.355 148.873 121.914 149.911 119.77C150.966 117.61 152.429 115.926 154.3 114.718C156.188 113.493 158.229 112.881 160.424 112.881C164.013 112.881 166.803 114.063 168.793 116.427C170.784 118.792 171.779 122.177 171.779 126.583V128.548H153.075C153.143 131.27 153.934 133.473 155.448 135.157C156.979 136.824 158.918 137.657 161.266 137.657C162.933 137.657 164.345 137.317 165.502 136.637C166.658 135.956 167.67 135.055 168.538 133.932L171.421 136.177C169.108 139.733 165.638 141.51 161.011 141.51ZM160.424 116.759C158.519 116.759 156.919 117.457 155.627 118.852C154.334 120.229 153.534 122.169 153.228 124.669H167.058V124.312C166.922 121.914 166.276 120.059 165.119 118.749C163.962 117.423 162.397 116.759 160.424 116.759ZM183.669 106.706V113.391H188.824V117.04H183.669V134.162C183.669 135.267 183.899 136.101 184.358 136.662C184.818 137.207 185.6 137.479 186.706 137.479C187.25 137.479 187.999 137.377 188.951 137.173V141C187.71 141.34 186.502 141.51 185.328 141.51C183.219 141.51 181.628 140.872 180.556 139.597C179.485 138.321 178.949 136.509 178.949 134.162V117.04H173.922V113.391H178.949V106.706H183.669Z" fill="black"/>
</svg>
