<svg width="350" height="200" viewBox="0 0 350 200" fill="none" xmlns="http://www.w3.org/2000/svg">
<rect width="350" height="200" fill="white"/>
<rect width="350" height="200" fill="url(#paint0_linear)"/>
<path d="M197.208 102.348C197.208 101.974 197.074 101.689 196.807 101.491C196.539 101.288 196.057 101.077 195.361 100.858C194.665 100.633 194.114 100.413 193.708 100.198C192.602 99.6086 192.049 98.8149 192.049 97.8166C192.049 97.2977 192.196 96.836 192.49 96.4314C192.789 96.0224 193.215 95.7036 193.769 95.4749C194.326 95.2463 194.951 95.1319 195.642 95.1319C196.338 95.1319 196.958 95.2573 197.502 95.5079C198.047 95.7542 198.468 96.1038 198.767 96.5567C199.071 97.0097 199.222 97.5242 199.222 98.1003H197.215C197.215 97.6605 197.074 97.3197 196.793 97.0778C196.512 96.8316 196.117 96.7084 195.609 96.7084C195.118 96.7084 194.737 96.8118 194.464 97.0185C194.192 97.2208 194.056 97.489 194.056 97.8232C194.056 98.1354 194.215 98.3971 194.531 98.6082C194.853 98.8193 195.323 99.0172 195.943 99.2018C197.085 99.5405 197.917 99.9604 198.439 100.462C198.961 100.963 199.222 101.588 199.222 102.335C199.222 103.166 198.903 103.819 198.265 104.294C197.627 104.765 196.769 105 195.689 105C194.94 105 194.257 104.866 193.641 104.598C193.026 104.325 192.555 103.953 192.229 103.483C191.908 103.012 191.748 102.467 191.748 101.847H193.762C193.762 102.907 194.404 103.437 195.689 103.437C196.166 103.437 196.539 103.342 196.807 103.153C197.074 102.96 197.208 102.691 197.208 102.348Z" fill="#6FCF97"/>
<path d="M208.567 100.574H204.713V103.146H209.236V104.736H202.705V95.1319H209.223V96.7348H204.713V99.0237H208.567V100.574Z" fill="#6FCF97"/>
<path d="M220 96.7348H217.016V104.736H215.008V96.7348H212.064V95.1319H220V96.7348Z" fill="#6FCF97"/>
<path d="M132.623 95.1319L135.126 102.098L137.615 95.1319H140.252V104.736H138.237V102.111L138.438 97.5792L135.808 104.736H134.43L131.807 97.5858L132.007 102.111V104.736H130V95.1319H132.623Z" fill="white"/>
<path d="M149.744 102.757H146.224L145.555 104.736H143.42L147.047 95.1319H148.907L152.554 104.736H150.42L149.744 102.757ZM146.766 101.154H149.202L147.977 97.5594L146.766 101.154Z" fill="white"/>
<path d="M159.189 101.22H157.59V104.736H155.582V95.1319H159.203C160.354 95.1319 161.241 95.3848 161.866 95.8905C162.49 96.3962 162.803 97.1108 162.803 98.0343C162.803 98.6895 162.658 99.237 162.368 99.6768C162.082 100.112 161.647 100.46 161.063 100.719L163.171 104.644V104.736H161.016L159.189 101.22ZM157.59 99.6174H159.209C159.713 99.6174 160.104 99.4921 160.38 99.2414C160.657 98.9864 160.795 98.6368 160.795 98.1926C160.795 97.7397 160.664 97.3835 160.4 97.124C160.142 96.8646 159.742 96.7348 159.203 96.7348H157.59V99.6174Z" fill="white"/>
<path d="M169.076 95.1319L171.579 102.098L174.068 95.1319H176.705V104.736H174.69V102.111L174.891 97.5792L172.261 104.736H170.883L168.26 97.5858L168.461 102.111V104.736H166.453V95.1319H169.076Z" fill="white"/>
<path d="M188.579 100.152C188.579 101.097 188.41 101.926 188.071 102.639C187.731 103.351 187.245 103.901 186.612 104.288C185.983 104.675 185.26 104.868 184.444 104.868C183.636 104.868 182.916 104.677 182.282 104.294C181.649 103.912 181.158 103.366 180.81 102.658C180.462 101.946 180.286 101.128 180.281 100.204V99.7296C180.281 98.7841 180.453 97.9529 180.797 97.2361C181.145 96.515 181.633 95.9631 182.262 95.5805C182.896 95.1935 183.618 95 184.43 95C185.242 95 185.963 95.1935 186.592 95.5805C187.225 95.9631 187.714 96.515 188.057 97.2361C188.405 97.9529 188.579 98.7819 188.579 99.723V100.152ZM186.545 99.7164C186.545 98.7093 186.362 97.9442 185.996 97.4208C185.63 96.8975 185.108 96.6359 184.43 96.6359C183.757 96.6359 183.237 96.8953 182.871 97.4142C182.505 97.9288 182.32 98.6851 182.316 99.6834V100.152C182.316 101.132 182.499 101.893 182.864 102.434C183.23 102.975 183.757 103.245 184.444 103.245C185.117 103.245 185.635 102.986 185.996 102.467C186.357 101.944 186.54 101.183 186.545 100.185V99.7164Z" fill="white"/>
<defs>
<linearGradient id="paint0_linear" x1="350" y1="-9.12696e-06" x2="-1.59655e-06" y2="200" gradientUnits="userSpaceOnUse">
<stop stop-color="#271133"/>
<stop offset="0.994475" stop-color="#271133"/>
</linearGradient>
</defs>
</svg>
