<svg width="251" height="251" viewBox="0 0 251 251" fill="none" xmlns="http://www.w3.org/2000/svg">
<path d="M142.542 97.709C142.261 96.098 142.118 94.521 142.094 93H138.156C138.231 93.513 138.269 94.034 138.269 94.564C138.269 101.108 132.374 106.412 125.1 106.412C117.831 106.412 111.935 101.108 111.935 94.564C111.935 94.034 111.972 93.512 112.047 93H108.109C108.088 94.521 107.938 96.098 107.661 97.709C105.977 107.408 103.544 115.287 97 117.203C97 117.203 99.823 121.743 99.823 129.527C99.826 142.965 97.003 157 97.003 157H153.203C153.203 157 149.672 142.97 149.672 129.116C149.672 121.742 153.203 117.203 153.203 117.203C146.66 115.288 144.222 107.408 142.54 97.709" fill="#6ADBC6"/>
<path d="M125.099 106.413C132.373 106.413 138.268 101.109 138.268 94.565C138.268 94.035 138.23 93.513 138.155 93.001C134.528 94.647 131.182 96.705 125.095 96.705C118.934 96.705 115.67 94.685 112.045 93.001C111.97 93.514 111.933 94.035 111.933 94.565C111.933 101.108 117.828 106.413 125.097 106.413" fill="#428BC1"/>
<path d="M98.48 147.788C97.644 153.779 97.001 157 97.001 157H105.315L148.259 113.9C146.107 111.339 144.709 107.625 143.663 103.263L98.483 147.792" fill="#FFCE31"/>
</svg>
