<svg width="251" height="251" viewBox="0 0 251 251" fill="none" xmlns="http://www.w3.org/2000/svg">
<path d="M140.97 95L128.309 113.986H134.642L147.299 95H140.97Z" fill="#428BC1"/>
<path d="M134.642 95L121.985 113.986H128.309L140.97 95H134.642Z" fill="#E8E8E8"/>
<path d="M128.309 95L115.656 113.986H121.985L134.642 95H128.309Z" fill="#ED4C5C"/>
<path d="M113.546 109.767C112.966 109.767 112.491 110.241 112.491 110.822V120.315C112.491 120.896 112.966 121.37 113.546 121.37H136.746C137.324 121.37 137.801 120.896 137.801 120.315V110.822C137.801 110.241 137.324 109.767 136.746 109.767H113.546ZM135.696 117.15C135.696 117.73 135.219 118.205 134.641 118.205H115.655C115.075 118.205 114.6 117.73 114.6 117.15V112.931C114.6 112.35 115.075 111.876 115.655 111.876H134.641C135.219 111.876 135.696 112.35 135.696 112.931V117.15Z" fill="#FFC200"/>
<path d="M115.656 113.986H121.985L109.328 95H103L115.656 113.986Z" fill="#ED4C5C"/>
<path d="M121.985 113.986H128.309L115.656 95H109.328L121.985 113.986Z" fill="#E8E8E8"/>
<path opacity="0.5" d="M126.199 98.165L123.04 102.911L130.419 113.991H134.642L135.697 112.409L126.199 98.165Z" fill="#3E4347"/>
<path d="M128.309 113.986H134.642L121.985 95H115.656L128.309 113.986Z" fill="#428BC1"/>
<path d="M125.149 154.996C136.038 154.996 144.865 146.169 144.865 135.28C144.865 124.391 136.038 115.564 125.149 115.564C114.26 115.564 105.433 124.391 105.433 135.28C105.433 146.169 114.26 154.996 125.149 154.996Z" fill="#FFC200"/>
<path d="M125.419 117.36C115.369 117.36 107.219 125.52 107.219 135.589C107.219 138.589 107.957 141.418 109.239 143.915C108.59 141.93 108.227 139.815 108.227 137.617C108.227 126.94 116.476 118.214 126.932 117.437C126.43 117.396 125.932 117.36 125.415 117.36" fill="#E68A00"/>
<path d="M139.129 124C144.264 132.968 141.58 144.569 132.725 150.521C130.898 151.746 128.945 152.629 126.941 153.208C129.722 152.863 132.474 151.891 134.961 150.218C143.315 144.605 145.581 133.402 140.024 125.198C139.742 124.781 139.437 124.39 139.125 124.005" fill="#FFE394"/>
<path d="M125.149 127.31V120.928L121.904 130.917L123.399 132.711L125.149 127.31Z" fill="#F2B200"/>
<path d="M126.903 132.711L128.389 130.917L125.149 120.928V127.31L126.903 132.711Z" fill="#E68A00"/>
<path d="M127.987 136.05L130.399 137.09L138.898 130.917L132.579 132.711L127.987 136.05Z" fill="#C47500"/>
<path d="M132.579 132.711L138.898 130.917H128.389L126.903 132.711H132.579Z" fill="#FFE394"/>
<path d="M123.399 132.711L121.904 130.917H111.4L117.72 132.711H123.399Z" fill="#FFD252"/>
<path d="M117.72 132.711L111.4 130.917L119.898 137.09L122.309 136.05L117.72 132.711Z" fill="#FFDB75"/>
<path d="M127.987 136.05L129.74 141.44L133.647 147.08L130.399 137.09L127.987 136.05Z" fill="#E68A00"/>
<path d="M125.149 138.11V140.906L133.647 147.08L129.74 141.44L125.149 138.11Z" fill="#F2B200"/>
<path d="M122.309 136.05L119.898 137.09L116.65 147.08L120.556 141.44L122.309 136.05Z" fill="#F2B200"/>
<path d="M120.556 141.44L116.65 147.08L125.149 140.906V138.11L120.556 141.44Z" fill="#E68A00"/>
<path d="M126.903 132.711L125.149 127.31L123.399 132.711H117.72L122.309 136.05L120.556 141.44L125.149 138.11L129.74 141.44L127.987 136.05L132.579 132.711H126.903Z" fill="#FFCE31"/>
</svg>
